
<svg width="47px" height="47px" viewBox="0 0 47 47" version="1.1" xmlns="http://www.w3.org/2000/svg" xmlns:xlink="http://www.w3.org/1999/xlink">
    <!-- Generator: Sketch 49.3 (51167) - http://www.bohemiancoding.com/sketch -->
    <desc>Created with Sketch.</desc>
    <defs></defs>
    <g id="Web" stroke="none" stroke-width="1" fill="none" fill-rule="evenodd">
        <g id="Landing-Page" transform="translate(-850.000000, -1765.000000)" fill-rule="nonzero">
            <g id="Call-to-action" transform="translate(0.000000, 1549.000000)">
                <g id="description-items" transform="translate(850.000000, 216.000000)">
                    <g id="recipe">
                        <g id="001-add">
                            <path d="M27.6617647,6 L5.33823529,6 C2.38764706,6 0,8.46 0,11.5 L0,36.5 C0,39.54 2.38764706,42 5.33823529,42 L18.1305882,42 C17.0823529,39.72 16.5,37.18 16.5,34.5 L16.5194118,34 L7.27941176,34 C6.48352941,34 5.82352941,33.32 5.82352941,32.5 C5.82352941,31.68 6.48352941,31 7.27941176,31 L16.8494118,31 C17.0823529,29.78 17.4511765,28.6 17.9170588,27.5 L7.27941176,27.5 C6.48352941,27.5 5.82352941,26.82 5.82352941,26 C5.82352941,25.18 6.48352941,24.5 7.27941176,24.5 L19.5670588,24.5 C20.4405882,23.2 21.5082353,22.02 22.6923529,21 L7.27941176,21 C6.48352941,21 5.82352941,20.32 5.82352941,19.5 C5.82352941,18.68 6.48352941,18 7.27941176,18 L25.7205882,18 C26.1282353,18 26.4776471,18.16 26.7494118,18.44 C28.6711765,17.58 30.7870588,17.08 33,17.02 L33,11.5 C33,8.46 30.6123529,6 27.6617647,6 Z" id="Shape" fill="#2196F3"></path>
                            <path d="M24.5,4 L22.3,4 C21.64,1.7 19.52,0 17,0 C14.48,0 12.36,1.7 11.7,4 L9.5,4 C8.68,4 8,4.68 8,5.5 L8,9.5 C8,11.42 9.58,13 11.5,13 L22.5,13 C24.42,13 26,11.42 26,9.5 L26,5.5 C26,4.68 25.32,4 24.5,4 Z" id="Shape" fill="#1976D2"></path>
                            <g id="Group" transform="translate(6.000000, 18.000000)" fill="#FFFFFF">
                                <path d="M21.56,0.4125 C20.04,1.03125 18.64,1.839375 17.38,2.8125 L1.5,2.8125 C0.68,2.8125 -8.8817842e-16,2.175 -8.8817842e-16,1.40625 C-8.8817842e-16,0.6375 0.68,0 1.5,0 L20.5,0 C20.92,0 21.28,0.15 21.56,0.4125 Z" id="Shape"></path>
                                <path d="M14.16,6.09375 C13.5,6.975 12.92,7.9125 12.46,8.90625 L1.5,8.90625 C0.68,8.90625 0,8.26875 0,7.5 C0,6.73125 0.68,6.09375 1.5,6.09375 L14.16,6.09375 Z" id="Shape"></path>
                                <path d="M11.36,12.1875 C11.16,13.10625 11.04,14.04375 11.02,15 L1.5,15 C0.68,15 0,14.3625 0,13.59375 C0,12.825 0.68,12.1875 1.5,12.1875 L11.36,12.1875 Z" id="Shape"></path>
                            </g>
                            <path d="M8.10488677,6 L5.57210965,6 C2.49225268,6 0,8.46 0,11.5 L0,36.5 C0,39.54 2.49225268,42 5.57210965,42 L17,42 L17,34 L7.59833135,34 C6.76758045,34 6.07866508,33.32 6.07866508,32.5 C6.07866508,31.68 6.76758045,31 7.59833135,31 L17,31 L17,27.5 L7.59833135,27.5 C6.76758045,27.5 6.07866508,26.82 6.07866508,26 C6.07866508,25.18 6.76758045,24.5 7.59833135,24.5 L17,24.5 L17,21 L7.59833135,21 C6.76758045,21 6.07866508,20.32 6.07866508,19.5 C6.07866508,18.68 6.76758045,18 7.59833135,18 L17,18 L17,13 L11.6507747,13 C9.70560191,13 8.10488677,11.42 8.10488677,9.5 L8.10488677,6 Z" id="Shape" fill="#1D83D4"></path>
                            <path d="M17,0 C14.5173121,0.0960295476 12.4507973,1.76254232 11.7927107,3.99722992 L9.53758542,3.99722992 C8.69703872,3.99722992 8,4.67743921 8,5.4976916 L8,5.99784549 L8,9.49892275 C8,11.4195137 9.61958998,13 11.5876993,13 L17,13 L17,0 Z" id="Shape" fill="#1667B7"></path>
                            <path d="M16,18 L7.39146568,18 C6.63079777,18 6,18.68 6,19.5 C6,20.32 6.63079777,21 7.39146568,21 L16,21 L16,18 Z" id="Shape" fill="#DEDEDE"></path>
                            <path d="M16,24 L7.39146568,24 C6.63079777,24 6,24.68 6,25.5 C6,26.32 6.63079777,27 7.39146568,27 L16,27 L16,24 Z" id="Shape" fill="#DEDEDE"></path>
                            <path d="M16,30 L7.39146568,30 C6.63079777,30 6,30.68 6,31.5 C6,32.32 6.63079777,33 7.39146568,33 L16,33 L16,30 Z" id="Shape" fill="#DEDEDE"></path>
                            <path d="M33.5,47 C26.056,47 20,40.946 20,33.5 C20,26.054 26.056,20 33.5,20 C40.944,20 47,26.054 47,33.5 C47,40.946 40.944,47 33.5,47 Z" id="Shape" fill="#4CAF50"></path>
                            <path d="M34,42 C32.896,42 32,41.106 32,40 L32,29 C32,27.894 32.896,27 34,27 C35.104,27 36,27.894 36,29 L36,40 C36,41.106 35.104,42 34,42 Z" id="Shape" fill="#FFFFFF"></path>
                            <path d="M40,36 L29,36 C27.896,36 27,35.106 27,34 C27,32.894 27.896,32 29,32 L40,32 C41.104,32 42,32.894 42,34 C42,35.106 41.104,36 40,36 Z" id="Shape" fill="#FFFFFF"></path>
                            <path d="M33,20 C25.8317037,20 20,26.054 20,33.5 C20,40.946 25.8317037,47 33,47 L33,41 C31.9368889,41 31.0740741,40.106 31.0740741,39 L31.0740741,35.5 L27.7037037,35.5 C26.6405926,35.5 25.7777778,34.606 25.7777778,33.5 C25.7777778,32.394 26.6405926,31.5 27.7037037,31.5 L31.0740741,31.5 L31.0740741,28 C31.0740741,26.894 31.9368889,26 33,26 L33,20 Z" id="Shape" fill="#429846"></path>
                            <path d="M35,36.5 L32,36.5 L32,40 C32,41.106 33.344,42 35,42 L35,36.5 Z M35,27 C33.344,27 32,27.894 32,29 L32,32.5 L35,32.5 L35,27 Z" id="Shape" fill="#DEDEDE"></path>
                            <path d="M35,32 L32.8666667,32 L29.1333333,32 C27.9557333,32 27,32.894 27,34 C27,35.106 27.9557333,36 29.1333333,36 L32.8666667,36 L35,36 L35,32 Z" id="Shape" fill="#DEDEDE"></path>
                        </g>
                    </g>
                </g>
            </g>
        </g>
    </g>
</svg>
