
<svg width="1440px" height="607px" viewBox="0 0 1440 607" version="1.1" xmlns="http://www.w3.org/2000/svg" xmlns:xlink="http://www.w3.org/1999/xlink">
    <!-- Generator: Sketch 49.3 (51167) - http://www.bohemiancoding.com/sketch -->
    <desc>Created with Sketch.</desc>
    <defs>
        <path d="M0,0.0819108552 C146.904406,103.822439 431.595773,142.364083 854.074101,115.706843 C1113.27114,99.3522107 1308.57977,124.381545 1440,190.794845 L1440,607 L0,607 L0,0.0819108552 Z" id="path-1"></path>
    </defs>
    <g id="Web" stroke="none" stroke-width="1" fill="none" fill-rule="evenodd">
        <g id="Landing-Page" transform="translate(0.000000, -1549.000000)">
            <g id="Call-to-action" transform="translate(0.000000, 1549.000000)">
                <g id="005-mojito-+-006-martini-Mask">
                    <g id="BG">
                        <mask id="mask-2" fill="white">
                            <use xlink:href="#path-1"></use>
                        </mask>
                        <use id="Mask" fill="#127041" xlink:href="#path-1"></use>
                        <g id="005-mojito" mask="url(#mask-2)">
                            <g transform="translate(381.000000, 370.000000)">
                                <g>
                                    <path d="M119.89,38.864 C88,38.864 62.057,64.808 62.057,96.697 L62.057,134.043 L95.453,134.043 C127.343,134.043 153.286,108.099 153.286,76.21 L153.286,38.864 L119.89,38.864 Z" id="Shape" fill="#1FC979" fill-rule="nonzero"></path>
                                    <path d="M34.224,38.864 L0.828,38.864 L0.828,76.21 C0.828,108.099 26.771,134.043 58.661,134.043 L92.057,134.043 L92.057,96.697 C92.057,64.808 66.114,38.864 34.224,38.864 Z" id="Shape" fill="#BADB47" fill-rule="nonzero"></path>
                                    <polygon id="Shape" fill="#BADB47" fill-rule="nonzero" points="66.053 222.722 81.737 439.987 367.872 439.987 383.556 222.722"></polygon>
                                    <polygon id="Shape" fill="#1FC979" fill-rule="nonzero" points="383.556 222.722 224.804 222.722 224.804 439.987 367.872 439.987"></polygon>
                                    <path d="M67.781,454.987 L381.828,454.987 L407.163,104.043 L42.447,104.043 L67.781,454.987 Z M353.916,424.987 L95.693,424.987 L82.175,237.722 L367.434,237.722 L353.916,424.987 Z" id="Shape" fill="#DFF5FF" fill-rule="nonzero"></path>
                                    <polygon id="Shape" fill="#BFEBFF" fill-rule="nonzero" points="407.163 104.042 224.804 104.042 224.804 237.722 367.434 237.722 353.916 424.987 224.804 424.987 224.804 454.987 381.828 454.987"></polygon>
                                    <polygon id="Shape" fill="#09A1E5" fill-rule="nonzero" points="368.623 12.345 341.281 0 289.918 114.043 322.82 114.043"></polygon>
                                    <polygon id="Shape" fill="#077CCC" fill-rule="nonzero" points="368.623 12.345 341.281 0 289.918 114.043 322.82 114.043"></polygon>
                                    <polygon id="Shape" fill="#077CCC" fill-rule="nonzero" points="294.422 104.042 234.216 237.722 267.117 237.722 327.324 104.042"></polygon>
                                    <polygon id="Shape" fill="#0556B2" fill-rule="nonzero" points="294.422 104.042 234.216 237.722 267.117 237.722 327.324 104.042"></polygon>
                                </g>
                            </g>
                        </g>
                        <g id="006-martini" mask="url(#mask-2)">
                            <g transform="translate(670.000000, 429.000000)">
                                <g id="Group" stroke-width="1" fill="none" fill-rule="evenodd">
                                    <path d="M270.271,502.249 L252.255,495.809 C231.638,488.44 217.877,468.908 217.877,447.013 L217.877,313.041 C217.877,296.126 224.654,279.916 236.694,268.034 L412.922,94.122 C419.314,87.814 414.847,76.929 405.867,76.929 L10.133,76.929 C1.152,76.929 -3.314,87.814 3.078,94.122 L179.307,268.033 C191.347,279.915 198.124,296.125 198.124,313.04 L198.124,447.013 C198.124,468.907 184.363,488.439 163.747,495.808 L145.73,502.248 C140.424,504.145 141.785,511.999 147.42,511.999 L268.58,511.999 C274.216,512 275.577,504.146 270.271,502.249 Z" id="Shape" fill="#E3F0FF" fill-rule="nonzero"></path>
                                    <path d="M141.562,181.418 L63.318,104.204 C60.03,100.96 55.598,99.141 50.979,99.141 C35.272,99.141 27.46,118.179 38.64,129.212 L116.884,206.426 C120.172,209.67 124.604,211.489 129.223,211.489 C144.93,211.489 152.742,192.45 141.562,181.418 Z" id="Shape" fill="#F5FAFF" fill-rule="nonzero"></path>
                                    <path d="M217.874,313.044 L217.874,447.014 C217.874,468.91 231.635,488.436 252.255,495.809 L270.274,502.248 C275.577,504.146 274.211,512.001 268.577,512.001 L147.423,512.001 C141.788,512.001 140.422,504.146 145.726,502.248 L163.745,495.809 C184.366,488.437 198.126,468.911 198.126,447.014 L198.126,313.044 C198.126,296.13 191.346,279.918 179.303,268.036 L171.9,260.734 C248.959,228.322 307.266,160.111 326.009,76.925 L405.871,76.925 C414.851,76.925 419.31,87.813 412.922,94.121 L236.697,268.036 C224.654,279.918 217.874,296.13 217.874,313.044 Z" id="Shape" fill="#CBE1FF" fill-rule="nonzero"></path>
                                    <path d="M257.117,247.879 L364.686,141.724 L51.314,141.724 L158.883,247.879 C171.969,260.793 189.615,268.034 208,268.034 C226.385,268.034 244.031,260.793 257.117,247.879 Z" id="Shape" fill="#29E088" fill-rule="nonzero"></path>
                                    <path d="M364.69,141.72 L257.117,247.877 C250.568,254.335 242.894,259.378 234.548,262.803 C226.201,266.228 217.192,268.036 208.001,268.036 C196.249,268.036 184.789,265.073 174.634,259.559 C229.275,235.845 274.243,194.051 301.995,141.72 L364.69,141.72 Z" id="Shape" fill="#0CC166" fill-rule="nonzero"></path>
                                    <g transform="translate(141.000000, 101.000000)" fill-rule="nonzero">
                                        <g id="Oval">
                                            <circle fill="#772DBD" cx="29.938" cy="29.66" r="29.034"></circle>
                                            <circle fill="#8042E0" cx="22.897" cy="23.222" r="19.547"></circle>
                                        </g>
                                        <g transform="translate(3.000000, 40.000000)" id="Shape">
                                            <path d="M0.091,0.722 C4.442,11.269 14.821,18.694 26.938,18.694 C39.055,18.694 49.434,11.269 53.785,0.722 L0.091,0.722 Z" fill="#0CC166"></path>
                                            <path d="M11.226,0.722 C13.842,2.021 16.779,2.77 19.897,2.77 C23.015,2.77 25.952,2.021 28.568,0.722 L11.226,0.722 Z" fill="#29E088"></path>
                                        </g>
                                    </g>
                                    <g transform="translate(204.000000, 156.000000)" fill-rule="nonzero">
                                        <circle id="Oval" fill="#C2FFC2" cx="15.863" cy="16.539" r="15.78"></circle>
                                        <path d="M31.645,16.54 C31.645,25.252 24.579,32.317 15.861,32.317 C7.149,32.317 0.084,25.251 0.084,16.54 C0.084,15.653 0.155,14.781 0.304,13.937 C1.333,18.931 5.752,22.698 11.051,22.698 C17.109,22.698 22.018,17.782 22.018,11.723 C22.018,6.431 18.258,2.004 13.264,0.975 C14.108,0.826 14.974,0.755 15.86,0.755 C24.58,0.756 31.645,7.822 31.645,16.54 Z" id="Shape" fill="#79FF79"></path>
                                    </g>
                                    <circle id="Oval" fill="#79FF79" fill-rule="nonzero" cx="308.063" cy="168.934" r="9.24"></circle>
                                    <g transform="translate(232.000000, 0.000000)" fill-rule="nonzero">
                                        <path d="M85.59,0 C82.961,0 80.619,1.661 79.75,4.142 L1.258,228.205 C0.107,231.49 1.891,235.092 5.233,236.151 C8.463,237.175 11.904,235.249 13.025,232.051 L91.431,8.234 C92.84,4.21 89.854,-1.95399252e-14 85.59,0 Z" id="Shape" fill="#B5B1A4"></path>
                                        <polygon id="Shape" fill="#8F8B81" transform="translate(62.419837, 72.703578) rotate(-70.677518) translate(-62.419837, -72.703578) " points="46.7613829 66.5129212 78.0782911 66.5129212 78.0782911 78.8942338 46.7613829 78.8942338"></polygon>
                                        <g transform="translate(42.000000, 18.000000)" id="Oval">
                                            <circle fill="#FE255F" cx="29.064" cy="29.656" r="29.034"></circle>
                                            <circle fill="#FC709B" cx="24.547" cy="21.252" r="19.547"></circle>
                                        </g>
                                    </g>
                                    <path d="M276.673,141.72 L244.943,232.299 C243.808,235.523 240.282,237.221 237.048,236.096 C233.824,234.961 232.126,231.435 233.261,228.201 L263.554,141.72 L276.673,141.72 Z" id="Shape" fill="#29E088" fill-rule="nonzero"></path>
                                    <path d="M276.673,141.72 L244.943,232.299 C243.808,235.523 240.282,237.221 237.048,236.096 C233.824,234.961 232.126,231.435 233.261,228.201 L263.554,141.72 L276.673,141.72 Z" id="Shape" fill="#04A550" fill-rule="nonzero"></path>
                                </g>
                                <path d="M146.82,193.79 C146.82,202.82 139.82,211.49 129.22,211.49 C124.6,211.49 120.17,209.67 116.88,206.43 L51.32,141.72 L101.34,141.72 L141.56,181.42 C145.2,185.01 146.82,189.44 146.82,193.79 Z" id="Shape" fill="#79FF79" fill-rule="nonzero"></path>
                            </g>
                        </g>
                    </g>
                </g>
            </g>
        </g>
    </g>
</svg>
