
<svg width="586px" height="489px" viewBox="0 0 586 489" version="1.1" xmlns="http://www.w3.org/2000/svg" xmlns:xlink="http://www.w3.org/1999/xlink">
    <!-- Generator: Sketch 49.3 (51167) - http://www.bohemiancoding.com/sketch -->
    <desc>Created with Sketch.</desc>
    <defs></defs>
    <g id="Web" stroke="none" stroke-width="1" fill="none" fill-rule="evenodd">
        <g id="Landing-Page" transform="translate(-603.000000, -259.000000)">
            <g id="Hero-Content" transform="translate(250.000000, 198.000000)">
                <g id="Graphic-Img" transform="translate(284.000000, 0.000000)">
                    <path d="M322.212993,527.763471 C490.54523,534.662448 456.824402,402.874216 627.327028,339.394593 C797.829653,275.914971 563.092652,73.9862498 370.783973,101.188853 C178.475294,128.391456 46.4377955,228.584297 57.144723,320.178608 C67.8516505,411.77292 153.880755,520.864494 322.212993,527.763471 Z" id="Oval-2" fill="#417505" opacity="0.6" transform="translate(371.398989, 313.353948) rotate(-21.000000) translate(-371.398989, -313.353948) "></path>
                    <g id="Graphic" transform="translate(116.000000, 61.000000)" fill-rule="nonzero">
                        <g id="004-cocktail-1" transform="translate(0.000000, 108.000000)">
                            <path d="M122.983408,44 L73.4221461,44 L67.2535223,44 L24.0165904,44 C22.4510178,44 21.480898,45.7040023 22.2940956,47.0385716 C27.4986818,55.5804218 40.5378218,82.0600965 34.7025056,125.571909 C28.5892303,171.153516 7.0045209,225.890876 44.7911433,252.451232 C47.5032212,254.357239 50.7243839,255.891387 54.2557416,257.055496 C55.4940889,257.654232 56.6478928,258.209292 57.6149715,258.687917 C63.1029909,261.405585 66.5309503,265.806024 66.5309503,271.917138 L66.07174,273.245641 C64.6284207,277.419203 64.7111393,281.967658 66.3046904,286.086018 C65.241512,291.903527 60.5265473,296.525383 54.4649712,297.348569 C44.6433445,298.682532 38.1687832,300.962219 38.1687832,303.552497 C38.1687832,307.665397 54.4911249,311 74.6258245,311 C94.7605241,311 111.082866,307.666003 111.082866,303.552497 C111.082866,300.962219 104.608305,298.682532 94.7866778,297.348569 C88.7257099,296.525383 84.0107452,291.904133 82.9475669,286.086018 C84.5411179,281.967052 84.6238366,277.419203 83.1805173,273.245641 L82.721307,271.917138 C82.721307,265.806024 86.1492664,261.405585 91.6372858,258.687917 C93.3463997,257.841678 94.9709702,256.766743 96.5164714,255.609308 C98.5820055,254.702407 100.499133,253.652951 102.209463,252.450625 C139.996085,225.89027 118.410768,171.15291 112.298101,125.571302 C106.462784,82.0594899 119.501924,55.5798152 124.706511,47.037965 C125.518492,45.7040023 124.54898,44 122.983408,44 Z" id="Shape" fill="#DFEDE7"></path>
                            <path d="M121.996648,44 L90.0436476,44 C90.0424391,44.0018215 68.5366112,71.7887585 75.7052205,125.646745 C81.7783571,171.27017 103.221345,226.057747 65.6828231,252.64247 C62.6652881,254.779132 59.009684,256.444624 55,257.649874 C60.4870315,259.29958 66.6399267,260.083448 72.7607976,259.992978 L72.915481,259.992978 C83.5088777,260.149023 94.2122447,257.703306 101.359102,252.64247 C138.897624,226.057747 117.454031,171.27017 111.381499,125.646745 C105.584497,82.0950138 118.538024,55.5910459 123.708438,47.0413593 C124.515087,45.7055656 123.551942,44 121.996648,44 Z" id="Shape" fill="#D6E5E2"></path>
                            <path d="M112.313027,125.495953 C108.576442,97.5878654 112.577101,76.6853694 117.305483,63 L29.6944101,63 C34.4227929,76.6853694 38.4234513,97.5878654 34.6868668,125.495953 C28.5711834,171.170584 6.97797175,226.019653 44.7794784,252.634213 C51.9764043,257.701338 62.7541477,260.149192 73.4223674,259.992972 L73.5781345,259.992972 C84.2457457,260.149192 95.0240976,257.70073 102.221024,252.634213 C140.021922,226.019653 118.42871,171.169976 112.313027,125.495953 Z" id="Shape" fill="#FC502A"></path>
                            <path d="M110.954845,121.892557 C110.924627,121.622059 110.89441,121.352169 110.865401,121.083494 C110.740905,119.922481 110.627288,118.772409 110.528779,117.636926 C110.515483,117.484961 110.505209,117.335427 110.492518,117.183462 C110.406096,116.151315 110.331157,115.130717 110.265283,114.119846 C110.250174,113.883996 110.233252,113.647538 110.219352,113.412904 C110.152874,112.317539 110.097878,111.234332 110.054969,110.164498 C110.046508,109.947492 110.03986,109.733525 110.032608,109.517734 C109.998765,108.569472 109.972778,107.630936 109.95646,106.703341 C109.952834,106.51612 109.947999,106.326467 109.944978,106.139854 C109.930473,105.107707 109.927452,104.090149 109.934099,103.083532 C109.935308,102.835525 109.938934,102.590557 109.941352,102.343766 C109.951626,101.421641 109.968547,100.508027 109.995743,99.607178 C109.999369,99.494116 110.000578,99.3780146 110.004204,99.2649526 C110.035026,98.2960231 110.078539,97.3435058 110.127491,96.3994986 C110.141391,96.1350793 110.155895,95.8724836 110.171004,95.6098879 C110.224187,94.6889794 110.282809,93.7753652 110.352309,92.878771 C110.364396,92.7195116 110.379504,92.5645072 110.392196,92.4058556 C110.454444,91.6344808 110.52334,90.8734395 110.59707,90.1203005 C110.624266,89.8449397 110.650857,89.5689711 110.679262,89.2960417 C110.765079,88.4699594 110.85694,87.6536029 110.955449,86.8500114 C110.988084,86.5849843 111.023136,86.3254279 111.057584,86.0628322 C111.136149,85.4549717 111.217736,84.8537978 111.303554,84.2587024 C111.345254,83.9693609 111.385745,83.6781957 111.428654,83.3918935 C111.538646,82.6612453 111.653472,81.9409307 111.773133,81.2303418 C111.828129,80.9033129 111.884937,80.5811469 111.942351,80.258373 C112.026959,79.7781633 112.113986,79.3028164 112.202825,78.8323325 C112.28139,78.4153402 112.36056,78.0007794 112.442147,77.5910815 C112.547304,77.0646744 112.653669,76.5431301 112.763661,76.0288802 C112.843435,75.6544382 112.924417,75.2842512 113.006609,74.9158878 C113.083965,74.5700152 113.162531,74.2290055 113.241096,73.8892115 C113.388557,73.2533895 113.539644,72.6279012 113.693149,72.0115307 C113.756606,71.7580529 113.819458,71.5039673 113.884123,71.2535288 C113.991697,70.8353208 114.099876,70.4213679 114.209867,70.0122778 C114.247941,69.8706463 114.287224,69.732662 114.325298,69.5922462 C114.544072,68.7929098 114.766473,68.0118092 114.993103,67.2489443 C115.027551,67.1334509 115.061999,67.0173495 115.096447,66.9024639 C115.505591,65.5420723 115.924405,64.2418588 116.350471,63 L80.6630685,63 C75.9684868,76.6853695 71.9991237,97.59516 75.7092212,125.495953 C81.7835312,171.170585 103.230662,226.019654 65.6848872,252.634215 C62.6667692,254.773276 59.0104588,256.440637 55,257.64724 C57.0439077,258.262395 59.1808852,258.756585 61.374067,259.130419 C61.4345019,259.140753 61.4961455,259.149263 61.5571847,259.159597 C62.1869162,259.264756 62.8214825,259.359583 63.4596748,259.445291 C63.6234534,259.467174 63.7872319,259.486625 63.9516148,259.507293 C64.4906939,259.574765 65.0321905,259.635551 65.5755001,259.689043 C65.7864178,259.70971 65.9979399,259.72977 66.209462,259.748613 C66.7146976,259.792987 67.2217463,259.830067 67.7293993,259.862891 C67.9590518,259.87748 68.1887044,259.893892 68.4183569,259.906049 C68.9332621,259.933403 69.449376,259.951031 69.9654899,259.966227 C70.1776164,259.972306 70.3897428,259.982032 70.6018692,259.986287 C71.322253,259.99966 72.0432412,260.003915 72.7642293,259.992973 L72.9189426,259.992973 C83.5143862,260.149193 94.2198213,257.700732 101.368059,252.634215 C138.913834,226.019654 117.466099,171.170585 111.392393,125.495953 C111.229823,124.279017 111.088406,123.081532 110.954845,121.892557 Z" id="Shape" fill="#E52D15"></path>
                            <circle id="Oval" fill="#FD9727" cx="125" cy="20" r="15"></circle>
                            <path d="M145.494065,50.0171245 C131.278219,34.5304045 111.51474,24.0982676 89.0704641,22.0084213 C87.9042109,21.8997468 86.9154575,22.8576694 87.0057323,24.0268355 L91.6579361,84.2593455 C91.7677298,85.6812714 93.353029,86.471298 94.5491706,85.6959241 C104.150021,79.4703432 136.999081,58.1664874 145.148215,52.8811237 C146.130869,52.2437297 146.28641,50.8810254 145.494065,50.0171245 Z" id="Shape" fill="#FFFFBB"></path>
                            <path d="M40.3829462,63 L50,63 L36.8992674,13.9312459 C36.5140235,12.4888348 35.4553661,11.3202993 34.0560335,10.7914153 L6.29527698,0.30198313 C3.89528723,-0.604849124 1.21262252,0.599594521 0.30293422,2.99204928 C-0.606754085,5.38389543 0.601482932,8.05874627 3.00147268,8.96557852 L28.531356,18.6120827 L40.3829462,63 Z" id="Shape" fill="#65DBEF"></path>
                            <path d="M145.496309,50.0836929 C137.867904,41.7521018 128.635118,34.8860955 118.244893,30 L90,59.612737 L91.8989031,84.2625952 C92.00821,85.6818664 93.5864796,86.4704181 94.7773171,85.6964918 C104.335595,79.4825337 137.038994,58.2184508 145.151992,52.9429546 C146.130288,52.3067506 146.28514,50.9459809 145.496309,50.0836929 Z" id="Shape" fill="#EFEDAB"></path>
                            <path d="M145.493812,49.8243958 C131.278027,34.4442083 111.514633,24.0838337 89.0704552,22.0083633 C87.904207,21.9004364 86.9154578,22.8517695 87.0057323,24.012893 L87.9444645,36.0849395 C106.281156,38.7806863 122.62205,47.0431563 135.317808,59 C139.616213,56.2314935 143.136307,53.9638163 145.147963,52.6686936 C146.130612,52.0362906 146.286763,50.6823539 145.493812,49.8243958 Z" id="Shape" fill="#FDC74F"></path>
                            <path d="M145.966295,50.8040594 C145.902533,50.4705528 145.755391,50.1460924 145.500958,49.8734975 C145.035621,49.3753483 144.564153,48.88323 144.087167,48.3959364 C143.934507,48.2397371 143.778169,48.0871563 143.624283,47.9321632 C143.298118,47.6034813 142.97134,47.2754024 142.64027,46.9515451 C142.450211,46.7663977 142.257087,46.5848688 142.065803,46.4015306 C141.764774,46.1132554 141.463746,45.8249802 141.159039,45.5403236 C140.949975,45.3461299 140.738458,45.1543485 140.527555,44.961964 C140.233884,44.6941937 139.940212,44.4264235 139.643476,44.1622718 C139.422763,43.9662688 139.199597,43.7726781 138.976432,43.5784844 C138.683374,43.3233789 138.389702,43.0688766 138.092966,42.8173897 C137.863669,42.6231959 137.632534,42.4308115 137.401398,42.238427 C137.105275,41.9923678 136.808538,41.748118 136.508736,41.5062804 C136.272695,41.3157052 136.036042,41.1263361 135.798162,40.9381733 C135.497747,40.7005573 135.195493,40.4647507 134.892012,40.2307532 C134.651067,40.0450027 134.409509,39.8598553 134.166111,39.6771202 C133.858339,39.444932 133.548727,39.2157593 133.23789,38.9877927 C132.995105,38.8098823 132.752321,38.6313688 132.507697,38.4558707 C132.189502,38.2273011 131.868242,38.00235 131.546982,37.7780019 C131.304197,37.6085347 131.062639,37.4384644 130.818015,37.2714096 C130.485719,37.0446492 130.150358,36.8221104 129.814996,36.5995716 C129.577117,36.441563 129.33985,36.2823483 129.100131,36.1267521 C128.744538,35.8957701 128.385266,35.6702159 128.025381,35.4440586 C127.800989,35.3029364 127.578436,35.1594019 127.352205,35.020089 C126.945725,34.7692052 126.534954,34.5249553 126.123569,34.2807054 C125.940867,34.1721499 125.760618,34.060579 125.576691,33.9532296 C124.980152,33.6046458 124.379322,33.2620929 123.773587,32.926777 C123.701242,32.8869733 123.628284,32.8489789 123.555939,32.8091752 C123.021323,32.5154723 122.484254,32.2253878 121.942894,31.9419374 C121.733216,31.8321757 121.51986,31.7266356 121.308957,31.6186832 C120.902476,31.4100154 120.495996,31.2019507 120.085838,30.9993137 C119.837536,30.8768872 119.586168,30.7586824 119.336639,30.6380651 C118.958975,30.4559331 118.581923,30.2744042 118.201193,30.0977 C118.129461,30.0645302 118.057729,30.0331697 117.985997,30 L107,41.2909787 C117.615077,45.4022169 127.182992,51.4590109 135.273968,59 C135.337117,58.9595932 135.399039,58.9203926 135.461575,58.8799859 C135.804293,58.6616687 136.141494,58.4463669 136.473177,58.2352868 C136.759491,58.0525517 137.041513,57.872832 137.319857,57.6955247 C137.462707,57.6044587 137.603718,57.5145988 137.744116,57.424739 C139.439929,56.3440087 140.968981,55.3694215 142.271189,54.5389718 C142.281611,54.5323379 142.292034,54.5257039 142.302456,54.51907 C142.774537,54.21813 143.213511,53.938298 143.623057,53.6771618 C143.817407,53.5535291 144.005013,53.433515 144.184649,53.3189286 C144.289488,53.251986 144.391261,53.1874558 144.490582,53.1241318 C144.725396,52.9745664 144.949175,52.831635 145.153335,52.7013684 C145.825283,52.2743834 146.102401,51.5150979 145.966295,50.8040594 Z" id="Shape" fill="#EAB447"></path>
                        </g>
                        <g id="007-martini-1" transform="translate(17.000000, 0.000000)">
                            <path d="M288.972756,413.321952 C288.653059,409.891634 285.619677,407.3769 282.193524,407.691242 C281.701108,407.736979 234.883388,412.068743 194.227926,412.493686 L194.227926,306 L181.772209,306 L181.772209,412.493686 C141.130033,412.069574 94.2990267,407.736979 93.8066107,407.691242 C90.3879315,407.376068 87.3470757,409.892466 87.0273789,413.321952 C86.7076822,416.751438 89.2245675,419.790907 92.6498897,420.11107 C93.1730299,420.160134 145.491195,425 188.000067,425 C230.50894,425 282.826275,420.159302 283.350245,420.11107 C286.774737,419.790907 289.291622,416.751438 288.972756,413.321952 Z" id="Shape" fill="#D2E1F9"></path>
                            <path d="M375.053132,72.17635 C374.729069,72.4920429 365.480806,81.3148298 350.997678,96.4597831 L261.041081,156.549442 L188.5008,205 L52.3111987,124.905378 C23.5443654,92.7960835 2.44702576,72.6498894 1.94015781,72.17635 C0.186893275,70.5065005 -0.444614331,67.980957 0.319842245,65.6880293 C1.08429882,63.386794 3.1034613,61.7418676 5.50485207,61.4677132 C6.40225761,61.359713 96.217596,51 188.5008,51 C246.034466,51 302.612562,55.0292388 337.279006,58.0864757 C358.210159,59.9307871 371.147756,61.4261747 371.488438,61.4677132 C373.889829,61.7418676 375.9173,63.386794 376.681757,65.6880293 C377.446214,67.980957 376.806397,70.5065005 375.053132,72.17635 Z" id="Shape" fill="#DCF8FF"></path>
                            <path d="M375.052442,72.0236247 C374.728264,72.3378333 365.476725,81.119136 350.988466,96.1928788 L261,156 C291.830151,108.331252 323.699335,72.4949376 337.264934,58 C358.203503,59.8356396 371.145683,61.323996 371.486485,61.3653392 C373.888727,61.6382045 375.916917,63.2753966 376.681644,65.5658117 C377.446372,67.8479582 376.806328,70.3616267 375.052442,72.0236247 Z" id="Shape" fill="#D2E1F9"></path>
                            <path d="M350,95.7544848 C311.699215,135.88851 236.689367,220.440623 193.455906,308.521275 C192.411339,310.646701 190.247594,312 187.876593,312 C185.505592,312 183.341846,310.646701 182.297279,308.521275 C147.544706,237.709711 92.2489846,169.181319 52,124.182061 C59.079842,116.153595 86.4872865,88 122.947644,88 C178.782229,88 184.908696,119.964418 232.386747,122.081542 C268.863684,123.708821 280.130084,112.077094 297.257664,103.583692 C308.888833,97.8134915 323.222612,93.487917 350,95.7544848 Z" id="Shape" fill="#77E0AB"></path>
                            <path d="M95.4350342,25 L86,33.2403285 C86.1683325,33.4221612 92.6070489,40.5797584 102.605997,52.9939745 L112.762336,56 L118,52.2170528 C104.651236,35.2487536 95.6370331,25.2231583 95.4350342,25 Z" id="Shape" fill="#97B0BF"></path>
                            <path d="M178,144.904028 L167.217108,151 C154.256188,127.810427 140.519757,106.661137 128.086843,88.9206161 C118.219713,74.8376777 109.177594,62.8945498 102,53.7796209 C106.917065,53.5059242 111.957881,53.2405213 117.089449,53 C124.951802,63.2345972 134.348676,75.9822275 144.314807,90.6291469 C155.270951,106.702607 166.920104,125.07346 178,144.904028 Z" id="Shape" fill="#D2E1F9"></path>
                            <path d="M178,144.911824 L167.198347,151 C154.214876,127.84008 140.454545,106.717836 128,89 C133.975207,89.2153641 139.347107,89.8117568 144.256198,90.706346 C155.231405,106.759252 166.900826,125.106613 178,144.911824 Z" id="Shape" fill="#65C1B0"></path>
                            <path d="M83.5,2.92274388e-15 C73.2986889,2.92274388e-15 65,8.29918844 65,18.4995887 C65,28.7008116 73.2986889,37 83.5,37 C93.7013111,37 102,28.7008116 102,18.4995887 C102,8.29918844 93.7004889,0 83.5,2.92274388e-15 Z" id="Shape" fill="#58768C"></path>
                            <path d="M180.5,138 C165.33675,138 153,150.336456 153,165.500414 C153,180.663544 165.335922,193 180.5,193 C195.664078,193 208,180.663544 208,165.500414 C208,150.336456 195.66325,138 180.5,138 Z" id="Shape" fill="#C0FFDE"></path>
                            <g id="Group" transform="translate(110.000000, 131.000000)" fill="#C0FFDE">
                                <circle id="Oval" cx="7.0725" cy="6.59416667" r="6.25"></circle>
                                <circle id="Oval" cx="133.588333" cy="19.2025" r="6.25"></circle>
                                <circle id="Oval" cx="63.8058333" cy="88.5775" r="6.25"></circle>
                            </g>
                            <path d="M351,96.6125966 C312.587671,136.675058 237.359371,221.076405 194,309 C211.119261,227.963436 260.606313,152.496167 298.104062,104.427843 C309.769104,98.6679318 324.144627,94.3500703 351,96.6125966 Z" id="Shape" fill="#65C1B0"></path>
                        </g>
                        <g id="003-mai-thai" transform="translate(233.000000, 46.000000)">
                            <path d="M118.846121,340.806465 C118.846121,329.831081 121.860372,300.07522 124.75883,274 C124.229388,274.149887 123.7065,274.294656 123.196721,274.429189 C113.87432,276.889529 104.059617,276.889529 94.7379432,274.429189 C94.2281642,274.294656 93.7045483,274.149887 93.1751064,274 C96.0735643,300.083994 99.0885431,329.853015 99.0885431,340.83498 L99.0885431,340.884699 C99.0885431,344.94554 96.7457443,348.639341 93.0804332,350.356095 L53.1975072,369.039327 C51.1904343,369.979594 51.8582449,373 54.0728706,373 L163.92588,373 C166.137593,373 166.809773,369.986906 164.808526,369.042252 C153.768898,363.834958 134.623054,354.816147 124.881905,350.28956 C121.199844,348.580117 118.846121,344.878274 118.846121,340.806465 Z" id="Shape" fill="#D6E5E2"></path>
                            <path d="M165.548599,127.474036 C164.612341,96.1367485 173.204184,69.7345355 177.494636,58.6269757 C178.542457,55.9147239 176.542336,53 173.632208,53 L44.3681114,53 C41.4572539,53 39.4578622,55.9147239 40.5056835,58.6269757 C44.7961358,69.7338072 53.3879782,96.1367485 52.4517204,127.474036 C51.20921,169.0551 18.9695667,219.324983 45.341557,252.838482 C61.3906489,273.234266 81.4830037,281.676914 94.7524891,285.16191 C104.086629,287.612697 113.91369,287.612697 123.24783,285.16191 C136.518045,281.676914 156.609671,273.234266 172.658762,252.838482 C199.030024,219.325712 166.791109,169.055828 165.548599,127.474036 Z" id="Shape" fill="#E5F9F6"></path>
                            <path d="M165.504893,127.473862 C164.56629,96.1366478 173.17965,69.7344965 177.480848,58.6269626 C178.531293,55.9147171 176.526163,53 173.608747,53 L138.208661,53 C138.208661,53 122.636191,85.8928957 123.881813,127.473862 C125.127436,169.054829 157.447822,219.324595 131.009784,252.838015 C117.372268,270.124575 100.8283,278.819929 88,283.192733 C90.3099566,283.980041 92.5014914,284.629698 94.5314754,285.161368 C103.888993,287.612877 113.740665,287.612877 123.098183,285.161368 C136.400901,281.676381 156.543577,273.233752 172.632863,252.838015 C199.07017,219.325323 166.750515,169.055557 165.504893,127.473862 Z" id="Shape" fill="#D7E0DC"></path>
                            <path d="M47.2534215,80 C50.382295,92.8006907 52.989811,109.191819 52.4516827,127.22206 C51.2091751,168.868803 18.9696013,219.218089 45.3415347,252.784523 C61.390592,273.212523 81.4829033,281.668506 94.7523601,285.159007 C104.08648,287.613664 113.91352,287.613664 123.24764,285.159007 C136.517826,281.668506 156.609408,273.212523 172.658465,252.784523 C199.030399,219.218089 166.790825,168.868803 165.548317,127.22206 C165.010189,109.192549 167.617705,92.8006907 170.746578,80 L47.2534215,80 Z" id="Shape" fill="#FED130"></path>
                            <path d="M64.6287233,18.0380967 C46.2967844,5.24968893 14.2094862,5.67006409 3.63181911,6.20079681 C1.63487268,6.30098985 0.0610329443,7.91351702 0.0244320202,9.89632283 C-0.167356823,20.3984415 0.449002741,52.2213493 13.9298551,69.9787512 C44.1519702,109.788061 77.6249794,80.8279153 77.6249794,80.8279153 C77.6249794,80.8279153 105.724241,46.7071018 64.6287233,18.0380967 Z" id="Shape" fill="#77D057"></path>
                            <path d="M72.4237573,48.3249742 C73.1190317,45.3335969 71.2594085,42.3436706 68.2695114,41.6486089 C65.2788893,40.9520961 62.2926172,42.8138168 61.5980678,45.8066451 L59.0620203,56.723032 L50.8289283,48.7465095 L53.9094503,35.4873729 C54.6047246,32.4952701 52.7451014,29.5060694 49.7552043,28.8102821 C46.7667572,28.1130438 43.7783101,29.97549 43.0837608,32.9675928 L41.5141373,39.7223158 L34.1517695,32.5895895 L35.8098429,25.4539611 C36.5051172,22.4618583 34.645494,19.4726576 31.6555969,18.7768703 C28.6656998,18.0803576 25.6779777,19.9420782 24.9841533,22.934181 L24.8377035,23.5653957 L7.73787007,7 C6.13924662,7.03845331 4.73492299,7.09359391 3.59594909,7.1509111 C1.61815101,7.25103482 0.059402519,8.86244617 0.0231525542,10.8438799 C0.00212757459,11.9851452 -0.00729741627,13.3919559 0.00647757037,14.9917587 L17.106311,31.55788 L16.4791866,31.7254783 C13.5139395,32.5170361 11.7514662,35.5657306 12.5431654,38.5331653 C13.2065398,41.0210219 15.4525876,42.6621801 17.9088852,42.6621801 C18.3837597,42.6621801 18.8658843,42.6012353 19.3458338,42.4720902 L26.421102,40.5820737 L33.7827448,47.7140744 L27.0873763,49.5025161 C24.1221292,50.2947994 22.3596559,53.3427684 23.1513551,56.3102031 C23.8147295,58.7973341 26.0607773,60.4384924 28.5170749,60.4384924 C28.9919495,60.4384924 29.474074,60.376822 29.9540235,60.2484024 L43.0968108,56.7375427 L51.2023029,64.5899988 L40.7137381,67.3920117 C37.748491,68.184295 35.9860177,71.2322639 36.7777169,74.1996986 C37.4410913,76.6875552 39.6871391,78.3287135 42.1434367,78.3287135 C42.6183112,78.3287135 43.1004358,78.2670431 43.5803853,78.1386235 L60.5163689,73.6141926 L72.2686075,85 C75.2019547,83.1861646 76.878878,81.7249388 76.878878,81.7249388 C76.878878,81.7249388 78.2839267,80.0003442 80,77.0075158 L68.3753613,65.7450492 L72.4237573,48.3249742 Z" id="Shape" fill="#68B543"></path>
                            <path d="M82.5112366,51 C82.4846428,51 82.458049,51 82.4314552,50.9992691 C79.3889779,50.9561435 76.9574398,48.4117384 77.0005649,45.3176657 C77.2097217,30.258822 81.1463266,19.6338655 88.7004103,13.7395584 C97.4059348,6.94692491 107.417432,9.41750504 107.839339,9.52568428 C110.789097,10.2844009 112.576634,13.3316934 111.830569,16.3314747 C111.088098,19.3151753 108.121809,21.1293705 105.187863,20.4028153 C104.874487,20.3304522 99.680785,19.2164983 95.3050226,22.7118575 C90.6942284,26.3957995 88.1742838,34.2673017 88.0183146,45.4762799 C87.976627,48.5425768 85.5177764,51 82.5112366,51 Z" id="Shape" fill="#772424"></path>
                            <circle id="Oval" fill="#FC502A" cx="79" cy="55" r="25"></circle>
                            <path d="M194.218748,2.75222087 C191.552318,1.20867644 188.141615,2.1164726 186.597049,4.7809416 L143,80 L155.891264,80 L196.247127,10.3724713 C197.791692,7.70872968 196.883724,4.29649269 194.218748,2.75222087 Z" id="Shape" fill="#65DBEF"></path>
                            <path d="M193.055074,0.00655566602 L126.565561,3.71841916 C125.056811,3.80249965 124.443516,5.67618977 125.606511,6.63224288 C155.763959,31.4265632 190.476165,50.2011558 227.826489,61.9187862 C229.267257,62.3710812 230.523817,60.8453103 229.778214,59.5420628 L196.927823,2.10131948 C196.144209,0.729937773 194.64277,-0.0818738099 193.055074,0.00655566602 Z" id="Shape" fill="#FF644A"></path>
                            <path d="M229.779272,59.5415965 L197.056291,2.10139726 C196.274988,0.730028535 194.779372,-0.0825001839 193.197834,0.00665327948 L179.722723,0.761920831 C168.186671,1.40846465 161.347175,13.8913992 167.046391,23.8954325 L176.40528,40.323589 C192.809731,49.0591787 210.016601,56.3074278 227.836573,61.9190222 C229.271025,62.3705881 230.521255,60.8448317 229.779272,59.5415965 Z" id="Shape" fill="#E52D15"></path>
                            <path d="M182.326881,209.286734 C182.014737,206.62636 181.603905,203.937537 181.117778,201.22683 C180.753,199.193799 180.345823,197.148368 179.904288,195.092724 C179.022681,190.982165 178.006566,186.832945 176.930508,182.664758 C176.571578,181.275849 176.2068,179.884751 175.837636,178.492194 C175.099309,175.707081 174.344898,172.917591 173.597067,170.12956 C173.222786,168.735545 172.850698,167.341529 172.482265,165.948972 C172.113832,164.556416 171.750516,163.164589 171.393779,161.77495 C171.037043,160.385311 170.687616,158.997131 170.347693,157.61187 C167.798634,147.22277 165.7993,136.983941 165.507624,127.222914 C165.47619,126.161537 165.457184,125.106725 165.446218,124.057018 C165.442563,123.716356 165.444756,123.379342 165.444025,123.039409 C165.441832,122.331094 165.44037,121.624239 165.44695,120.92176 C165.450605,120.525658 165.458646,120.132474 165.465225,119.738561 C165.47619,119.092981 165.489349,118.44886 165.507624,117.808386 C165.51932,117.405719 165.532479,117.00524 165.547099,116.604762 C165.569761,115.969394 165.596077,115.336944 165.626049,114.707412 C165.644324,114.322253 165.6626,113.937093 165.683068,113.554122 C165.718888,112.892493 165.759094,112.235971 165.802224,111.580908 C165.824155,111.242434 165.844623,110.902501 165.868747,110.565487 C165.924304,109.79079 165.98571,109.023389 166.05077,108.258905 C166.068315,108.051736 166.083666,107.841649 166.101941,107.635209 C166.190395,106.635836 166.286158,105.645217 166.389962,104.663352 C166.389962,104.661893 166.390693,104.659704 166.390693,104.658245 C166.492305,103.696076 166.602689,102.744848 166.717458,101.800185 C166.743775,101.584262 166.772285,101.371258 166.799332,101.156064 C166.892172,100.420759 166.987204,99.6898311 167.087353,98.9654683 C167.121711,98.7189077 167.1568,98.4745355 167.191889,98.2287044 C167.291307,97.5313319 167.392919,96.8390657 167.498916,96.1533647 C167.534736,95.9213935 167.570556,95.6901518 167.607107,95.4596396 C167.720415,94.7425714 167.836647,94.0335274 167.956534,93.3295897 C167.987236,93.1486813 168.017208,92.9670435 168.048642,92.7875941 C168.188266,91.9800717 168.331546,91.181303 168.47848,90.3920174 C168.490908,90.3263652 168.502604,90.2599835 168.515031,90.1943313 C169.190492,86.5929421 169.937592,83.1877802 170.718319,80.0014589 C170.718319,80.0014589 170.718319,80.0007295 170.718319,80 L129.091972,80 C125.955906,92.7999951 123.343248,109.194085 123.88274,127.222185 C125.128394,168.869037 157.449615,219.218457 131.010894,252.784979 C117.373026,270.098929 100.828631,278.808062 88,283.187794 C88.0029241,283.188524 88.0051171,283.189253 88.0080412,283.190712 C88.5438772,283.373809 89.0724031,283.548152 89.5950808,283.71593 C89.7047335,283.750944 89.8129241,283.785229 89.9211148,283.819515 C90.3356019,283.951548 90.7464339,284.078476 91.1514177,284.201756 C91.2903111,284.243336 91.4284735,284.285645 91.5659048,284.326496 C91.9474961,284.440293 92.3239703,284.548984 92.6960583,284.655486 C92.8283726,284.693419 92.9621488,284.73208 93.093001,284.768554 C93.5798588,284.904965 94.0601375,285.03554 94.530182,285.15882 C95.6998105,285.465926 96.8774801,285.734371 98.0602669,285.964154 C99.2437847,286.193937 100.43242,286.385787 101.625441,286.539705 C108.782836,287.460295 116.079125,287 123.096895,285.15882 C123.928794,284.940709 124.786278,284.702902 125.668616,284.44467 C126.661338,284.153611 127.688418,283.832645 128.73816,283.485418 C134.510276,281.577856 141.086512,278.786177 147.841848,274.709904 C148.257797,274.458966 148.674477,274.202923 149.091157,273.941773 C149.757115,273.525246 150.423803,273.096318 151.091222,272.65426 C151.689195,272.258158 152.287898,271.852573 152.887333,271.435317 C154.706836,270.168229 156.52707,268.807769 158.33707,267.334971 C163.261206,263.327997 168.107123,258.529549 172.632123,252.78425 C174.697249,250.161808 176.404175,247.437241 177.795302,244.62222 C178.351607,243.495919 178.857471,242.355759 179.315819,241.201739 C179.544628,240.624729 179.76174,240.044071 179.967156,239.460496 C180.994967,236.54116 181.731833,233.539395 182.222346,230.466871 C182.516215,228.623502 182.721631,226.753873 182.846635,224.86163 C182.929971,223.600378 182.978218,222.328913 182.99357,221.047965 C183.04401,217.205122 182.795464,213.27766 182.326881,209.286734 Z" id="Shape" fill="#EDBA18"></path>
                        </g>
                    </g>
                </g>
            </g>
        </g>
    </g>
</svg>
