
<svg width="33px" height="39px" viewBox="0 0 33 39" version="1.1" xmlns="http://www.w3.org/2000/svg" xmlns:xlink="http://www.w3.org/1999/xlink">
    <!-- Generator: Sketch 49.3 (51167) - http://www.bohemiancoding.com/sketch -->
    <desc>Created with Sketch.</desc>
    <defs></defs>
    <g id="Web" stroke="none" stroke-width="1" fill="none" fill-rule="evenodd">
        <g id="Landing-Page" transform="translate(-850.000000, -1842.000000)" fill-rule="nonzero">
            <g id="Call-to-action" transform="translate(0.000000, 1549.000000)">
                <g id="description-items" transform="translate(850.000000, 216.000000)">
                    <g id="ingredient" transform="translate(0.000000, 77.000000)">
                        <g id="003-recipes">
                            <path d="M33,5.54050285 L33,33.4602589 C33,36.5149736 30.5191234,39 27.4702748,39 L1.16544107,39 C0.522966024,39 0,38.4767764 0,37.8322874 L0,1.16771256 C0,0.523985305 0.522966024,0 1.16544107,0 L27.4703508,0 C30.5191234,0 33,2.48495022 33,5.54050285 Z" id="Shape" fill="#FFE773"></path>
                            <path d="M33,5.54050285 L33,33.4602589 C33,36.5149736 30.5934619,39 27.635971,39 L19,39 L19,0 L27.6360447,0 C30.5934619,0 33,2.48495022 33,5.54050285 Z" id="Shape" fill="#FFD000"></path>
                            <path d="M6,0 L6,39 L1.14494125,39 C0.513767178,39 0,38.4767754 0,37.8322852 L0,1.16771484 C0,0.523986328 0.513767178,0 1.14494125,0 L6,0 Z" id="Shape" fill="#FF9900"></path>
                            <path d="M24,21.1230026 L24,25.8769974 C24,26.4976395 23.5021887,27 22.887167,27 L13.112833,27 C12.4978113,27 12,26.4976395 12,25.8769974 L12,21.1230026 C12,20.5031082 12.4978113,20 13.112833,20 L22.887167,20 C23.5021887,20 24,20.5031082 24,21.1230026 Z" id="Shape" fill="#DA4D04"></path>
                            <path d="M25,21.1230026 L25,25.8769974 C25,26.4976395 24.5021611,27 23.8871051,27 L19,27 L19,20 L23.8871051,20 C24.5021611,20 25,20.5031082 25,21.1230026 Z" id="Shape" fill="#AF4200"></path>
                            <path d="M27,17.7101768 C27,19.5240601 25.5028808,21 23.6631361,21 L13.7615242,21 C11.6872332,21 10,19.3365522 10,17.2915029 C10,15.2464537 11.6872332,13.5830059 13.7615242,13.5830059 C14.1049753,13.5830059 14.4431724,13.6296979 14.7678597,13.717828 C15.4089033,12.1692233 16.9285389,11.0614913 18.712743,11.0022199 C18.7631048,11.00074 18.8134666,11 18.8638284,11 C20.9809007,11 22.7658553,12.4715001 23.1912663,14.4535781 C23.3461044,14.432119 23.5039448,14.4209455 23.6632112,14.4209455 C25.5028808,14.4210935 27,15.8962935 27,17.7101768 Z" id="Shape" fill="#FF9900"></path>
                            <path d="M28,17.7101281 C28,19.5240382 26.3741362,21 24.376183,21 L19,21 L19,11.0022199 C19.0546927,11.00074 19.1093853,11 19.164078,11 C21.4632077,11 23.4016592,12.4715219 23.8636532,14.4536292 C24.0318067,14.4321698 24.2032205,14.4209962 24.376183,14.4209962 C26.3741362,14.4209962 28,15.896218 28,17.7101281 Z" id="Shape" fill="#FF7500"></path>
                        </g>
                    </g>
                </g>
            </g>
        </g>
    </g>
</svg>
