
<svg width="1440px" height="687px" viewBox="0 0 1440 687" version="1.1" xmlns="http://www.w3.org/2000/svg" xmlns:xlink="http://www.w3.org/1999/xlink">
    <!-- Generator: Sketch 49.3 (51167) - http://www.bohemiancoding.com/sketch -->
    <desc>Created with Sketch.</desc>
    <defs></defs>
    <g id="Web" stroke="none" stroke-width="1" fill="none" fill-rule="evenodd">
        <g id="Login" transform="translate(0.000000, -226.000000)" fill-rule="nonzero">
            <g id="BG" transform="translate(-322.000000, 226.000000)">
                <g id="005-mojito">
                    <polygon id="Shape" fill="#BFEBFF" points="87 570 95.4238816 687 505.576118 687 514 570"></polygon>
                    <polygon id="Shape" fill="#7ED7FF" points="513 570 300 570 300 687 504.595873 687"></polygon>
                    <polygon id="Shape" fill="#BADB47" points="88 299 109.04353 591 492.95647 591 514 299"></polygon>
                    <polygon id="Shape" fill="#1FC979" points="513 299 300 299 300 591 491.956536 591"></polygon>
                    <path d="M89.9670483,611 L511.031611,611 L545,140 L56,140 L89.9670483,611 Z M473.608059,570.737166 L127.3906,570.737166 L109.266081,319.409846 L491.732578,319.409846 L473.608059,570.737166 Z" id="Shape" fill="#DFF5FF"></path>
                    <polygon id="Shape" fill="#BFEBFF" points="544 140 300 140 300 319.410677 490.841801 319.410677 472.754446 570.737281 300 570.737281 300 611 510.101262 611"></polygon>
                    <polygon id="Shape" fill="#1FC979" points="340 422 431 422 431 513 340 513"></polygon>
                    <polygon id="Shape" fill="#19A995" points="340 422 431 422 431 513 340 513"></polygon>
                    <polygon id="Shape" fill="#09A1E5" points="494 16.5620424 457.175758 0 388 153 432.312458 153"></polygon>
                    <polygon id="Shape" fill="#077CCC" points="494 16.5620424 457.175758 0 388 153 432.312458 153"></polygon>
                    <polygon id="Shape" fill="#077CCC" points="393.828178 140 313 319 357.170479 319 438 140"></polygon>
                    <polygon id="Shape" fill="#0556B2" points="393.828178 140 313 319 357.170479 319 438 140"></polygon>
                </g>
                <g id="002-cocktail" transform="translate(1456.000000, 1.000000)">
                    <circle id="Oval" fill="#E94444" cx="59" cy="59" r="59"></circle>
                    <path d="M117,58.2169272 C117,90.6799404 90.6281555,117 58.0713002,117 C38.8385872,117 21.7650589,107.807657 11,93.6061763 C16.4657298,95.2754426 22.2629194,96.1723219 28.2681099,96.1723219 C60.8115458,96.1723219 87.1968097,69.8522623 87.1968097,37.3892491 C87.1968097,24.098034 82.769743,11.8415766 75.3259906,2 C99.4554501,9.34370089 117,31.7442643 117,58.2169272 Z" id="Shape" fill="#D83131"></path>
                    <g id="Group" transform="translate(62.000000, 60.000000)">
                        <path d="M452.244852,20.5509314 C458.569655,12.1565241 452.57654,0.149621481 442.061505,0.149621481 L227.515735,0.149621481 L12.9699661,0.149621481 C2.45359358,0.149621481 -3.53952168,12.1551876 2.78661873,20.5509314 L188.21743,266.646994 C198.003555,279.633534 203.295846,295.449394 203.295846,311.706291 L203.295846,508.423566 C203.295846,549.620446 174.818852,585.76411 134.498735,594.356316 C133.360564,594.599554 132.202332,594.832101 131.026713,595.056629 C131.026713,595.056629 100.324202,599.438935 94.4768687,625.736778 L227.517073,625.736778 L360.557277,625.736778 C354.708606,599.440271 324.007432,595.056629 324.007432,595.056629 C322.962884,594.857494 321.933047,594.651677 320.917922,594.437841 C280.434636,585.912459 251.7383,549.767459 251.7383,508.424903 L251.7383,311.706291 C251.7383,295.449394 257.030591,279.633534 266.816716,266.646994 L452.244852,20.5509314 Z" id="Shape" fill="#DFF6FD"></path>
                        <path d="M452.244852,20.5509314 C458.569655,12.1565241 452.57654,0.149621481 442.061505,0.149621481 L227.515735,0.149621481 L12.9699661,0.149621481 C2.45359358,0.149621481 -3.53952168,12.1551876 2.78661873,20.5509314 L24.6713197,49.5965696 L33.6897478,56.1974258 L190.338627,263.577108 C195.160135,269.976157 199.228659,276.113256 201.77249,283.600196 C202.300783,285.154517 200.318681,290.744998 200.743991,292.331395 C202.427841,298.612833 203.295846,305.124145 203.295846,311.708964 L203.295846,508.426239 C203.295846,549.623119 174.818852,585.766783 134.498735,594.358989 C133.360564,594.602227 132.202332,594.834774 131.026713,595.059302 C131.026713,595.059302 100.324202,599.441608 94.4768687,625.739451 L227.517073,625.739451 L360.557277,625.739451 C354.708606,599.442944 324.007432,595.059302 324.007432,595.059302 C322.962884,594.860167 321.933047,594.65435 320.917922,594.440514 C280.434636,585.915132 251.7383,549.770132 251.7383,508.427576 L251.7383,311.706291 C251.7383,304.489319 252.781511,297.357882 254.798386,290.523142 C255.127399,289.405848 254.569682,286.702157 254.950856,285.602237 C257.490674,278.270328 261.234198,270.715228 265.96476,264.436463 L417.622274,63.9930918 L422.244502,60.3658952 L452.244852,20.5509314 Z" id="Shape" fill="#C8EFFE"></path>
                        <path d="M251.735625,311.703618 L251.735625,508.419557 C251.735625,549.763449 280.426611,585.911122 320.919259,594.431158 C321.92636,594.644995 322.960209,594.858831 324.004757,595.060639 C324.004757,595.060639 354.711281,599.440271 360.55594,625.732769 L329.182028,625.732769 C326.247662,612.52972 315.610919,609.711091 302.803494,607.118327 C277.613953,602.018334 257.911971,589.900504 242.567402,568.042435 C230.442077,550.771152 224.075813,529.473067 224.075813,508.420893 C224.075813,508.319321 224.075813,311.704955 224.075813,311.704955 C224.075813,295.444048 229.365429,279.636207 239.151554,266.646994 L420.873615,20.5562773 C427.195744,12.16187 421.213328,0.154967386 410.696955,0.154967386 L442.05883,0.154967386 C452.575202,0.154967386 458.570993,12.16187 452.247527,20.5562773 L266.812703,266.646994 C257.025241,279.634871 251.735625,295.442712 251.735625,311.703618 Z" id="Shape" fill="#99E6FC"></path>
                        <path d="M423.464257,58.7420766 L266.812703,266.641648 C260.992119,274.366481 256.751064,283.104363 254.288818,292.330058 L200.741316,292.335404 L200.175574,290.342718 C197.65983,281.854758 193.616717,273.814516 188.21743,266.641648 L24.6806819,49.5965696 C77.8322984,46.4117467 132.064575,59.3087425 183.860017,71.2581766 C249.431198,86.3790689 321.046317,99.7892715 385.102167,77.7320676 C398.903318,72.9808945 411.781628,66.5190319 423.464257,58.7420766 Z" id="Shape" fill="#E94444"></path>
                        <path d="M423.468269,58.7420766 C423.468269,58.7420766 267.110955,266.248724 266.811366,266.646994 C263.487802,271.057366 260.600246,275.879372 258.346642,280.944617 C256.966393,284.047915 255.7774,287.274169 254.794374,290.523142 C254.61783,291.115201 254.441287,291.731317 254.290155,292.335404 L226.631681,292.335404 C229.100614,283.109709 233.332307,274.375836 239.151554,266.648331 L376.66553,80.4264037 C379.499587,79.5951154 382.308233,78.7023493 385.104842,77.733404 C398.908667,72.9755486 411.78029,66.5190319 423.468269,58.7420766 Z" id="Shape" fill="#D83131"></path>
                    </g>
                </g>
            </g>
        </g>
    </g>
</svg>
