
<svg width="65px" height="31px" viewBox="0 0 65 31" version="1.1" xmlns="http://www.w3.org/2000/svg" xmlns:xlink="http://www.w3.org/1999/xlink">
    <!-- Generator: Sketch 49.3 (51167) - http://www.bohemiancoding.com/sketch -->
    <desc>Created with Sketch.</desc>
    <defs></defs>
    <g id="Symbols" stroke="none" stroke-width="1" fill="none" fill-rule="evenodd">
        <g id="UI-/-Logo">
            <g id="Logo">
                <g id="Group-2" transform="translate(28.000000, 5.000000)" fill="#44566C" font-family="Poppins-SemiBold, Poppins" font-size="7.02" font-weight="500" line-spacing="12.96">
                    <g id="Group-3">
                        <text id="Señor">
                            <tspan x="10.21921" y="7">Señor</tspan>
                        </text>
                        <text id="Cocktails">
                            <tspan x="3.12591" y="15">Cocktails </tspan>
                        </text>
                    </g>
                </g>
                <g id="002-cocktail" fill="#127041" fill-rule="nonzero">
                    <g id="Group">
                        <path d="M27.8430026,1.75608 C28.1021822,1.43208 28.1540181,0.98712 27.9725924,0.61344 C27.7911667,0.2376 27.4131966,0 26.9985093,0 L1.08055608,0 C0.665868826,0 0.287898675,0.2376 0.106473002,0.61128 C-0.0727928413,0.98496 -0.0231167642,1.42992 0.236062768,1.75392 L12.959618,17.66016 L12.959618,28.08 L8.6399591,28.08 C8.04384618,28.08 7.56004439,28.56384 7.56004439,29.16 C7.56004439,29.75616 8.04384618,30.24 8.6399591,30.24 L19.4391063,30.24 C20.0352192,30.24 20.519021,29.75616 20.519021,29.16 C20.519021,28.56384 20.0352192,28.08 19.4391063,28.08 L15.1194474,28.08 L15.1194474,17.66016 L27.8430026,1.75608 Z M5.05680207,4.32 L3.32893852,2.16 L24.7522867,2.16 L23.0244231,4.32 L5.05680207,4.32 Z" id="Shape"></path>
                        <path d="M22.6279182,20.4187984 C22.623276,20.3369251 22.5853798,20.2602016 22.5225765,20.2058231 C22.3903192,20.095364 22.1915984,20.1102025 22.0779991,20.2389914 C20.6942742,21.8101206 19.7158467,21.0542329 18.6320777,20.2145516 C17.81077,19.5773714 16.9376842,18.9000402 15.786068,18.9000402 C15.3994284,18.8979454 15.0168955,18.9777674 14.6648044,19.1339639 C14.4362666,19.2369601 14.2259404,19.3748267 14.0416818,19.5424575 C13.857334,19.3754813 13.6470078,19.2381821 13.4185593,19.1357096 C13.0664682,18.9795131 12.6839352,18.899691 12.2972957,18.9017859 C11.1403231,18.9017859 10.1136885,19.5860999 9.16739921,20.2162973 C8.85494519,20.4257812 8.54963298,20.6282823 8.26038984,20.7906323 C7.43551124,21.2532426 6.69633431,21.3911528 6.04464451,20.2965995 C5.96327256,20.1467312 5.7730327,20.0897341 5.61975169,20.1692944 C5.52976493,20.2160355 5.46852394,20.3024912 5.45544551,20.4013414 C5.37054729,20.9428136 5.383224,21.4946291 5.49293999,22.0318244 C5.61934996,22.66224 5.97755617,23.2254898 6.49993465,23.6151735 C7.01151114,23.9713397 7.60887858,24.191516 8.23360807,24.2540994 C9.17074693,24.3520331 10.1181075,24.2929848 11.0349815,24.0795294 C11.7192111,23.9417065 12.3803192,23.7107941 12.9989782,23.3934697 C13.387046,23.1918414 13.7391817,22.9300739 14.0416818,22.6183793 C14.3436463,22.9272807 14.6945322,23.186648 15.0808146,23.3864869 C15.6994736,23.7038114 16.3605816,23.9347237 17.0448113,24.0725466 C17.9616853,24.286002 18.9090458,24.3450503 19.8461847,24.2471166 C20.4709142,24.1844896 21.0682816,23.9643569 21.5798581,23.6081907 C22.1028615,23.2190744 22.4612463,22.6555627 22.5868528,22.0248416 C22.6952743,21.4958075 22.7091562,20.9524586 22.6279182,20.4187984 Z" id="Shape"></path>
                    </g>
                </g>
            </g>
        </g>
    </g>
</svg>
