
<svg width="97px" height="31px" viewBox="0 0 97 31" version="1.1" xmlns="http://www.w3.org/2000/svg" xmlns:xlink="http://www.w3.org/1999/xlink">
    <!-- Generator: Sketch 49.3 (51167) - http://www.bohemiancoding.com/sketch -->
    <desc>Created with Sketch.</desc>
    <defs></defs>
    <g id="Web" stroke="none" stroke-width="1" fill="none" fill-rule="evenodd">
        <g id="Logo">
            <g id="Group-2" transform="translate(33.000000, 1.000000)" fill="#44566C" font-family="SignPainter-HouseScriptSemibold, SignPainter" font-size="20" font-style="condensed" font-weight="500" line-spacing="12.96">
                <g id="Group-3">
                    <text id="Señor">
                        <tspan x="12" y="14">Señor</tspan>
                    </text>
                    <text id="Cocktails">
                        <tspan x="0" y="29">Cocktails </tspan>
                    </text>
                </g>
            </g>
            <g id="002-cocktail" fill="#127041" fill-rule="nonzero">
                <g id="Group">
                    <path d="M33.7130374,1.80021429 C34.0268587,1.46807143 34.089623,1.01192857 33.869948,0.628857143 C33.6502731,0.243571429 33.1926169,0 32.6905027,0 L1.30836562,0 C0.806251427,0 0.348595261,0.243571429 0.128920301,0.626642857 C-0.0881394802,1.00971429 -0.027990384,1.46585714 0.285830987,1.798 L15.6918451,18.104 L15.6918451,28.7857143 L10.4614889,28.7857143 C9.73969979,28.7857143 9.1538999,29.2817143 9.1538999,29.8928571 C9.1538999,30.504 9.73969979,31 10.4614889,31 L23.5373794,31 C24.2591686,31 24.8449684,30.504 24.8449684,29.8928571 C24.8449684,29.2817143 24.2591686,28.7857143 23.5373794,28.7857143 L18.3070232,28.7857143 L18.3070232,18.104 L33.7130374,1.80021429 Z M6.12290849,4.42857143 L4.03076601,2.21428571 L29.9707175,2.21428571 L27.878575,4.42857143 L6.12290849,4.42857143 Z" id="Shape"></path>
                    <path d="M30.825247,19.6367281 C30.8177738,19.5251381 30.7567667,19.420567 30.655663,19.3464513 C30.4427487,19.1958999 30.1228384,19.2161241 29.9399607,19.3916583 C27.7123732,21.5330445 26.1372533,20.5027998 24.3925493,19.3583479 C23.0703683,18.4898968 21.6648325,17.5667214 19.8109049,17.5667214 C19.1884738,17.5638663 18.5726537,17.6726606 18.0058404,17.8855501 C17.6379292,18.0259298 17.2993359,18.2138365 17.0027075,18.4423105 C16.7059354,18.2147287 16.3673421,18.0275953 15.9995746,17.8879294 C15.4327613,17.6750399 14.8169412,17.5662456 14.1945101,17.5691008 C12.3319596,17.5691008 10.6792334,18.5017934 9.15585099,19.3607272 C8.65284737,19.6462454 8.16134098,19.9222462 7.69570334,20.1435228 C6.36777378,20.7740421 5.17781092,20.9620082 4.12868908,19.4701758 C3.99769257,19.2659114 3.69143522,19.1882266 3.44467601,19.2966641 C3.29981097,19.3603703 3.20122226,19.478206 3.18016797,19.6129349 C3.0434947,20.3509399 3.06390227,21.1030423 3.2405284,21.8352179 C3.44402929,22.6944491 4.02068702,23.4621361 4.86163722,23.9932593 C5.68519786,24.4786997 6.64686893,24.7787911 7.65258874,24.8640897 C9.16124032,24.9975694 10.6863473,24.917089 12.1623755,24.6261579 C13.2638816,24.4383107 14.3281654,24.1235864 15.3241126,23.6910859 C15.9488431,23.4162747 16.5157281,23.059496 17.0027075,22.6346687 C17.4888246,23.0556891 18.0536976,23.4091962 18.6755538,23.6815687 C19.671501,24.1140692 20.7357848,24.4287935 21.8372909,24.6166406 C23.3133191,24.9075717 24.8384261,24.9880522 26.3470776,24.8545724 C27.3527975,24.7692144 28.3144685,24.4691824 29.1380292,23.983742 C29.9799854,23.4533921 30.5569305,22.6853482 30.759138,21.8257006 C30.9336802,21.1046483 30.956028,20.3640856 30.825247,19.6367281 Z" id="Shape"></path>
                </g>
            </g>
        </g>
    </g>
</svg>
