
<svg width="35px" height="35px" viewBox="0 0 35 35" version="1.1" xmlns="http://www.w3.org/2000/svg" xmlns:xlink="http://www.w3.org/1999/xlink">
    <!-- Generator: Sketch 49.3 (51167) - http://www.bohemiancoding.com/sketch -->
    <desc>Created with Sketch.</desc>
    <defs></defs>
    <g id="Web" stroke="none" stroke-width="1" fill="none" fill-rule="evenodd">
        <g id="Landing-Page" transform="translate(-850.000000, -1911.000000)" fill-rule="nonzero">
            <g id="Call-to-action" transform="translate(0.000000, 1549.000000)">
                <g id="description-items" transform="translate(850.000000, 216.000000)">
                    <g id="user" transform="translate(0.000000, 146.000000)">
                        <g id="profile">
                            <path d="M17.5,0 C7.83366142,0 0,7.83366142 0,17.5 C0,22.7155512 2.28051181,27.4005906 5.90452756,30.6112205 C8.9980315,33.3395669 13.0561024,35 17.5,35 C21.9507874,35 26.0088583,33.3395669 29.0954724,30.6043307 C32.7194882,27.4005906 35,22.7155512 35,17.5 C35,7.83366142 27.1663386,0 17.5,0 Z" id="Shape" fill="#89D6F7"></path>
                            <path d="M27.6406296,29.1875667 C26.7525988,28.5195501 25.1404811,27.4107802 23.3849124,26.5912547 C21.6293436,25.7786159 20.5978616,23.8709808 20.8779329,21.9495722 C20.8779329,21.9220251 20.8847639,21.894478 20.8915949,21.8600442 C20.8915949,21.8600442 24.8877339,19.1328836 24.3344223,16.4745906 C24.3344223,16.4745906 24.4573805,16.4814774 24.6418176,16.4677038 C26.4042174,16.3024214 26.5135135,13.657902 24.7716068,13.3755444 C24.7579448,13.3755444 24.7374517,13.3686577 24.7237897,13.3686577 L24.6691417,13.0794133 C25.2019602,11.1993253 26.4998515,5.50396713 22.5720226,6.05490867 C22.5720226,6.05490867 19.7508168,1.35124525 13.7873478,3.61699234 C7.81704782,5.87585267 9.37451737,11.268193 9.37451737,11.268193 L10.1122661,13.416865 C8.50697951,13.8162977 8.65726166,16.3161949 10.3650134,16.4745906 C10.5494505,16.4883641 10.6792397,16.4814774 10.6792397,16.4814774 C10.1190971,19.1397703 14.1152361,21.866931 14.1152361,21.866931 C14.1220671,21.9013648 14.1220671,21.9289119 14.1288981,21.956459 C14.4021384,23.8778676 13.3706564,25.7855027 11.6219186,26.5981415 C9.85951886,27.417667 8.25423225,28.5333236 7.36620137,29.1944535 C6.83338283,29.5869993 6.36204336,30.0621864 6,30.6200147 C9.07395307,33.3402886 13.0974161,35 17.5034155,35 C21.9162459,35 25.9397089,33.3402886 29,30.6062412 C28.6447876,30.0552996 28.1734482,29.5801126 27.6406296,29.1875667 Z" id="Shape" fill="#41596B"></path>
                        </g>
                    </g>
                </g>
            </g>
        </g>
    </g>
</svg>
